<svg width="0" height="0" style="position:absolute"><symbol fill="currentColor" viewBox="0 0 48 48" id="fl_basket_pattern" xmlns="http://www.w3.org/2000/svg"><path fill-rule="evenodd" clip-rule="evenodd" d="M48 30.25H35.5v4.25H48v1h-2V48h-1V35.5h-4.25V48h-1V35.5H35.5V48h-1v-2h-20v2h-1V35.5H9.25V48h-1V35.5H4V48H3V35.5H0v-1h13.5v-4.25H0v-1h13.5V25H0v-1h13.5v-4.25H0v-1h13.5V14.5H0v-1h3V0h1v13.5h4.25V0h1v13.5h4.25V0h1v3h20V0h1v13.5h4.25V0h1v13.5H45V0h1v13.5h2v1H35.5v4.25H48v1H35.5V24H48v1H35.5v4.25H48v1Zm-13.5-22h-20V4h20v4.25Zm-4.25 6.25h4.25v20h-4.25v-20Zm-5.25 0h4.25v20H25v-20Zm-5.25 0H24v20h-4.25v-20Zm-5.25 0h4.25v20H14.5v-20Zm0-1V9.25h20v4.25h-20Zm0 31.5h20v-4.25h-20V45Zm20-9.5v4.25h-20V35.5h20Z" fill="#787674"></path></symbol><symbol fill="currentColor" viewBox="0 0 48 48" id="fl_brick_pattern" xmlns="http://www.w3.org/2000/svg"><path d="M48 3.45V2.037L45.964 0H44.55L48 3.45Z" fill="#787674"></path><path fill-rule="evenodd" clip-rule="evenodd" d="M34.65 0h-1.414l1.37 1.37-4.95 4.95L23.338 0h-1.415l18.34 18.341-4.949 4.95-21.92-21.92L14.763 0h-1.415l-.662.663L12.023 0h-1.415l12.684 12.684-4.95 4.95L.708 0H0v.707l6.32 6.32-4.949 4.95L0 10.606v1.415l11.978 11.978-4.95 4.95L0 21.92v1.415L17.634 40.97l-4.95 4.95L0 33.233v1.415l.663.663-.663.662v1.417l1.371-1.37L13.351 48h1.416l-1.374-1.374 4.95-4.95L24.666 48h1.415L7.736 29.655l4.95-4.95 21.92 21.92L33.231 48h1.415l.668-.667.667.667h1.415L24.707 35.311l4.95-4.949L47.293 48H48v-.71l-6.322-6.321 4.949-4.949L48 37.393v-1.415l-11.98-11.98 4.95-4.949 7.03 7.03v-1.415L30.364 7.027l4.95-4.949L48 14.765V13.35l-.665-.665.665-.666v-1.415l-1.373 1.373L34.65 0Zm6.32 40.26 4.948-4.948L24 13.392l-4.95 4.949 21.92 21.92ZM2.079 12.685l4.95-4.95 21.92 21.92-4.95 4.949-21.92-21.92Z" fill="#787674"></path><path d="M3.453 48 0 44.546v1.416L2.038 48h1.415Z" fill="#787674"></path></symbol><symbol fill="currentColor" viewBox="0 0 48 48" id="fl_chevron_pattern" xmlns="http://www.w3.org/2000/svg"><path fill-rule="evenodd" clip-rule="evenodd" d="M6.75 48v-1.02L5.73 48H4.328l2.422-2.423v-7.29L0 45.036v-1.405l6.75-6.75v-7.291L0 36.34v-1.404l6.75-6.75v-7.292L0 27.645v-1.401l6.75-6.75v-7.292L0 18.952v-1.404l6.75-6.75V3.507L0 10.257V8.853l6.75-6.75V0h.963v2.103l15.414 15.414v-7.291L12.9 0h1.404l8.822 8.822V1.53L21.597 0h1.401l.129.128V0h.934v.128L24.189 0h1.402l-1.53 1.53v7.292L32.882 0h1.404L24.061 10.226v7.291L39.475 2.103V0h.947v2.103L48 9.68v1.404l-7.578-7.578v7.291L48 18.377v1.402L40.422 12.2v7.291L48 27.07v1.404l-7.578-7.579v7.292L48 35.765v1.402l-7.578-7.578v7.291L48 44.46v1.404l-7.578-7.579v7.291L42.846 48h-1.404l-1.02-1.02V48h-.947v-1.02L38.455 48H37.05l2.425-2.425v-7.29L29.759 48h-1.404l11.12-11.12V29.59L24.061 45.003V48h-.934v-2.997L7.713 29.59v7.291L18.832 48h-1.405l-9.716-9.716v7.291L10.137 48H8.733l-1.02-1.02V48H6.75Zm.963-19.813v-7.292L23.127 36.31V43.6L7.713 28.187Zm0-15.987v7.291l15.414 15.415v-7.291L7.713 12.2Zm0-1.402V3.507L23.127 18.92v7.291L7.713 10.798Zm31.762 10.097v7.292L24.061 43.6V36.31l15.414-15.415Zm0-1.404v-7.29L24.061 27.614v7.29l15.414-15.414Zm0-15.984v7.291L24.061 26.212v-7.29L39.475 3.506Z" fill="#787674"></path><path d="M48 2.39V.986L47.014 0H45.61L48 2.39ZM1.562 0H.16L0 .16v1.402L1.562 0Z" fill="#787674"></path></symbol><symbol fill="none" viewBox="0 0 48 48" id="fl_grid_pattern" xmlns="http://www.w3.org/2000/svg"><g clip-path="url(#ca)"><path fill="transparent" d="M0 0h48v48H0z"></path><path fill-rule="evenodd" clip-rule="evenodd" d="M48 0H0v1h9v7H0v1h9v7H0v1h9v7H0v1h9v7H0v1h9v7H0v1h9v7h1v-7h28v7h1v-7h9v-1h-9v-7h9v-1h-9v-7h9v-1h-9v-7h9v-1h-9V9h9V8h-9V1h9V0ZM10 9v7h28V9H10Zm0 31h28v-7H10v7Zm28-8v-7H10v7h28Zm-28-8h28v-7H10v7ZM38 1v7H10V1h28Z" fill="#787674"></path></g><path stroke="#D9D9D9" d="M.5.5h47v47H.5z"></path><defs><clipPath id="ca"><path fill="#fff" d="M0 0h48v48H0z"></path></clipPath></defs></symbol><symbol fill="currentColor" viewBox="0 0 48 48" id="fl_herringbone_pattern" xmlns="http://www.w3.org/2000/svg"><path d="m48 40.44-1.978 1.978L48 44.396v1.414l-2.685-2.685L40.44 48h-1.415l6.29-6.29L48 39.027v1.414Z" fill="#787674"></path><path fill-rule="evenodd" clip-rule="evenodd" d="m48 26.298-2.686 2.685L48 31.67v1.414l-3.393-3.392-16.97 16.97L28.976 48H27.56l-10.53-10.531-5.657 5.656L16.249 48h-1.416l-4.167-4.167L6.5 48H5.083l5.583-5.583 5.657-5.655-6.364-6.364L0 40.357v-1.415l15.616-15.616-6.364-6.364L0 26.214V24.8L14.909 9.891 8.545 3.527 0 12.07v-1.414L10.657 0h1.414L9.252 2.82l16.264 16.263 5.657-5.657L17.746 0h1.415l5.648 5.648L30.456 0h1.416l-6.355 6.355 6.363 6.364L44.598 0h1.415L43.9 2.112l4.1 4.1v1.414L43.193 2.82l-16.97 16.97 6.364 6.364L48 10.741v1.414l-3.393 3.393L48 18.94v1.414l-4.1-4.1-16.97 16.97 6.364 6.365L48 24.883v1.415Zm-16.12.563-5.657 5.657L9.959 16.255l5.657-5.657L31.88 26.86Zm-4.95 19.093 5.657-5.657-16.264-16.264-5.657 5.657L26.93 45.954Z" fill="#787674"></path></symbol><symbol fill="currentColor" viewBox="0 0 48 48" id="fl_mix_pattern" xmlns="http://www.w3.org/2000/svg"><path fill-rule="evenodd" clip-rule="evenodd" d="M48 24.5H32.5v7H48v9H32.5v7H48v.5H0v-8.5h18.5v-7H0v-9h26.5v-7H0v-9h15.5v-7H0V0h48v8.5H9.5v7H48v9ZM16.5.5v7h24v-7h-24Zm31 0h-6v7h6v-7Zm-12 32h-16v7h16v-7Zm-4-1v-7h-25v7h25Zm8-8v-7h-12v7h12Zm1 0h7v-7h-7v7Zm7 9h-11v7h11v-7Zm-42-1v-7h-5v7h5Zm-5 16v-7h6v7h-6Zm31 0v-7h-24v7h24Zm-31-39h8v7h-8v-7Z" fill="#787674"></path></symbol><symbol fill="currentColor" viewBox="0 0 48 48" id="fl_random_pattern" xmlns="http://www.w3.org/2000/svg"><path fill-rule="evenodd" clip-rule="evenodd" d="M48 42H25v-8h23v-1H33v-8h15v-1H29v-8h19V6H22V0h-1v6H0v1h11v8H0v1h28v8H0v1h32v8H0v1h24v8H0v1h11v5h1v-5h35v5h1v-6Zm-1-27V7H12v8h35Z" fill="#787674"></path></symbol><symbol fill="currentColor" viewBox="0 0 48 48" id="fl_turnout_pattern" xmlns="http://www.w3.org/2000/svg"><g clip-path="url(#ha)"><path fill="#EBEBEB" d="M0 0h48v48H0z"></path><path d="M17.5 48V13.5h-10V48h-1V35.5H0v-1h6.5V0h1v12.5h10V0h1v34.5h10V0h1v12.5h10V0h1v34.5H48v1h-7.5V48h-1V13.5h-10V48h-1V35.5h-10V48h-1Z" fill="#787674"></path></g><path stroke="#D9D9D9" d="M.5.5h47v47H.5z"></path><defs><clipPath id="ha"><path fill="#fff" d="M0 0h48v48H0z"></path></clipPath></defs></symbol><symbol fill="none" viewBox="0 0 24 24" stroke-width="1.5" stroke="currentColor" class="anw-6 anh-6" id="fl_add_o" xmlns="http://www.w3.org/2000/svg"><path stroke-linecap="round" stroke-linejoin="round" d="M12 4.5v15m7.5-7.5h-15"></path></symbol><symbol fill="none" viewBox="0 0 24 24" stroke-width="1.5" stroke="currentColor" class="bew-6 beh-6" id="fl_adjust_horizontal_o" xmlns="http://www.w3.org/2000/svg"><path stroke-linecap="round" stroke-linejoin="round" d="M10.5 6h9.75M10.5 6a1.5 1.5 0 1 1-3 0m3 0a1.5 1.5 0 1 0-3 0M3.75 6H7.5m3 12h9.75m-9.75 0a1.5 1.5 0 0 1-3 0m3 0a1.5 1.5 0 0 0-3 0m-3.75 0H7.5m9-6h3.75m-3.75 0a1.5 1.5 0 0 1-3 0m3 0a1.5 1.5 0 0 0-3 0m-9.75 0h9.75"></path></symbol><symbol fill="none" viewBox="0 0 24 24" id="fl_adjust_o" xmlns="http://www.w3.org/2000/svg"><path d="M8.734 5.515a.375.375 0 0 1 0-.53l3-3a.375.375 0 0 1 .531 0l3 3a.375.375 0 1 1-.53.53l-2.36-2.36V9a.375.375 0 1 1-.75 0V3.156l-2.36 2.36a.375.375 0 0 1-.53 0Zm6 12.97-2.36 2.36V15a.375.375 0 0 0-.75 0v5.844l-2.359-2.36a.375.375 0 1 0-.53.531l3 3a.375.375 0 0 0 .53 0l3-3a.375.375 0 1 0-.53-.53Zm7.281-6.75-3-3a.375.375 0 1 0-.53.53l2.36 2.36H15a.375.375 0 0 0 0 .75h5.844l-2.36 2.36a.375.375 0 1 0 .531.53l3-3a.375.375 0 0 0 0-.53Zm-18.86.64H9a.375.375 0 1 0 0-.75H3.155l2.36-2.36a.375.375 0 1 0-.53-.53l-3 3a.375.375 0 0 0 0 .53l3 3a.375.375 0 0 0 .53-.53l-2.36-2.36Z" stroke="currentColor" stroke-linecap="round"></path></symbol><symbol fill="none" viewBox="0 0 24 24" stroke-width="1.5" stroke="currentColor" class="bfw-6 bfh-6" id="fl_alert_o" xmlns="http://www.w3.org/2000/svg"><path stroke-linecap="round" stroke-linejoin="round" d="M12 9v3.75m-9.303 3.376c-.866 1.5.217 3.374 1.948 3.374h14.71c1.73 0 2.813-1.874 1.948-3.374L13.949 3.378c-.866-1.5-3.032-1.5-3.898 0L2.697 16.126zM12 15.75h.007v.008H12v-.008z"></path></symbol><symbol fill="none" viewBox="0 0 28 28" id="fl_ar" xmlns="http://www.w3.org/2000/svg"><g clip-path="url(#aya)" fill="currentColor"><path d="M4 5.113c0-.611.5-1.111 1.11-1.111h2.223V1.779H5.11a3.329 3.329 0 0 0-3.334 3.334v2.222H4V5.113ZM4 22.89v-2.222H1.777v2.222a3.329 3.329 0 0 0 3.334 3.334h2.222V24H5.11c-.611 0-1.111-.5-1.111-1.11ZM22.888 1.78h-2.222v2.222h2.222c.611 0 1.111.5 1.111 1.11v2.223h2.223V5.113a3.329 3.329 0 0 0-3.334-3.334ZM24 22.89c0 .611-.5 1.111-1.112 1.111h-2.222v2.223h2.222a3.329 3.329 0 0 0 3.334-3.334v-2.222h-2.223v2.222Z"></path></g><path d="M8.053 17.637h-1.83l2.79-8.08h2.201L14 17.637h-1.831l-2.024-6.234h-.063l-2.029 6.234Zm-.114-3.176h4.325v1.334H7.939V14.46ZM15.194 17.637v-8.08h3.189c.61 0 1.13.109 1.562.327.434.216.764.522.99.92.23.394.344.858.344 1.392 0 .537-.116.999-.348 1.385a2.251 2.251 0 0 1-1.006.884c-.436.205-.965.308-1.586.308h-2.134V13.4h1.858c.326 0 .597-.045.813-.134a.966.966 0 0 0 .481-.403 1.27 1.27 0 0 0 .162-.667c0-.268-.054-.494-.162-.678a.992.992 0 0 0-.485-.419c-.216-.097-.488-.146-.817-.146h-1.152v6.684h-1.708Zm4.364-3.677 2.009 3.677H19.68l-1.965-3.677h1.842Z" fill="currentColor"></path><defs><clipPath id="aya"><path fill="#fff" transform="translate(.666 .667)" d="M0 0h26.667v26.667H0z"></path></clipPath></defs></symbol><symbol fill="none" viewBox="0 0 20 20" id="fl_ar_box" xmlns="http://www.w3.org/2000/svg"><g clip-path="url(#aza)" fill="currentColor"><path d="M2.5 3.334c0-.458.376-.833.834-.833h1.667V.834H3.334a2.497 2.497 0 0 0-2.5 2.5v1.667h1.667V3.334ZM2.5 16.667V15H.835v1.667c0 1.383 1.117 2.5 2.5 2.5h1.667V17.5H3.334a.836.836 0 0 1-.833-.833ZM16.667.834H15v1.667h1.667c.458 0 .833.375.833.833v1.667h1.667V3.334c0-1.383-1.117-2.5-2.5-2.5ZM17.5 16.667a.836.836 0 0 1-.833.833H15v1.667h1.667c1.383 0 2.5-1.117 2.5-2.5V15H17.5v1.667ZM15.835 12.393V7.61c0-.6-.317-1.15-.834-1.442l-4.166-2.4a1.647 1.647 0 0 0-1.667 0L5.001 6.16c-.516.3-.833.85-.833 1.45v4.783c0 .6.317 1.15.833 1.442l4.167 2.4a1.647 1.647 0 0 0 1.667 0l4.166-2.4c.517-.292.834-.842.834-1.442ZM9.168 14.31l-3.333-1.917V8.535l3.333 1.941v3.834Zm.833-5.275-3.3-1.925 3.3-1.9 3.3 1.9-3.3 1.925Zm4.167 3.358-3.333 1.917v-3.834l3.333-1.941v3.858Z"></path></g><defs><clipPath id="aza"><path fill="#fff" d="M0 0h20v20H0z"></path></clipPath></defs></symbol><symbol fill="none" viewBox="0 0 24 24" stroke-width="1.5" stroke="currentColor" class="ahw-6 ahh-6" id="fl_arrow_down_circle_o" xmlns="http://www.w3.org/2000/svg"><path stroke-linecap="round" stroke-linejoin="round" d="m9 12.75 3 3m0 0 3-3m-3 3v-7.5M21 12a9 9 0 1 1-18 0 9 9 0 0 1 18 0z"></path></symbol><symbol fill="none" viewBox="0 0 24 24" stroke-width="1.5" stroke="currentColor" class="bow-6 boh-6" id="fl_arrow_down_long_o" xmlns="http://www.w3.org/2000/svg"><path stroke-linecap="round" stroke-linejoin="round" d="M15.75 17.25 12 21m0 0-3.75-3.75M12 21V3"></path></symbol><symbol fill="none" viewBox="0 0 24 24" stroke-width="1.5" stroke="currentColor" class="aiw-6 aih-6" id="fl_arrow_down_tray_o" xmlns="http://www.w3.org/2000/svg"><path stroke-linecap="round" stroke-linejoin="round" d="M3 16.5v2.25A2.25 2.25 0 0 0 5.25 21h13.5A2.25 2.25 0 0 0 21 18.75V16.5M16.5 12 12 16.5m0 0L7.5 12m4.5 4.5V3"></path></symbol><symbol fill="none" viewBox="0 0 24 24" stroke-width="1.5" stroke="currentColor" class="blw-6 blh-6" id="fl_arrow_left_double_o" xmlns="http://www.w3.org/2000/svg"><path stroke-linecap="round" stroke-linejoin="round" d="m11.25 4.5 7.5 7.5-7.5 7.5m-6-15 7.5 7.5-7.5 7.5"></path></symbol><symbol fill="none" viewBox="0 0 24 24" stroke-width="1.5" stroke="currentColor" class="bkw-6 bkh-6" id="fl_arrow_left_long_o" xmlns="http://www.w3.org/2000/svg"><path stroke-linecap="round" stroke-linejoin="round" d="M6.75 15.75 3 12m0 0 3.75-3.75M3 12h18"></path></symbol><symbol fill="none" viewBox="0 0 24 24" stroke-width="1.5" stroke="currentColor" class="bbw-6 bbh-6" id="fl_arrow_left_o" xmlns="http://www.w3.org/2000/svg"><path stroke-linecap="round" stroke-linejoin="round" d="M10.5 19.5 3 12m0 0 7.5-7.5M3 12h18"></path></symbol><symbol fill="none" viewBox="0 0 24 24" stroke-width="1.5" stroke="currentColor" class="aaw-6 aah-6" id="fl_arrow_return_left_o" xmlns="http://www.w3.org/2000/svg"><path stroke-linecap="round" stroke-linejoin="round" d="M9 15 3 9m0 0 6-6M3 9h12a6 6 0 0 1 0 12h-3"></path></symbol><symbol fill="none" viewBox="0 0 24 24" stroke-width="1.5" stroke="currentColor" class="bmw-6 bmh-6" id="fl_arrow_right_long_o" xmlns="http://www.w3.org/2000/svg"><path stroke-linecap="round" stroke-linejoin="round" d="M17.25 8.25 21 12m0 0-3.75 3.75M21 12H3"></path></symbol><symbol fill="none" viewBox="0 0 24 24" stroke-width="1.5" stroke="currentColor" class="bcw-6 bch-6" id="fl_arrow_right_o" xmlns="http://www.w3.org/2000/svg"><path stroke-linecap="round" stroke-linejoin="round" d="M13.5 4.5 21 12m0 0-7.5 7.5M21 12H3"></path></symbol><symbol fill="none" viewBox="0 0 24 24" stroke-width="1.5" stroke="currentColor" class="bnw-6 bnh-6" id="fl_arrow_up_long_o" xmlns="http://www.w3.org/2000/svg"><path stroke-linecap="round" stroke-linejoin="round" d="M8.25 6.75 12 3m0 0 3.75 3.75M12 3v18"></path></symbol><symbol fill="none" viewBox="0 0 24 24" stroke-width="1.5" stroke="currentColor" class="ajw-6 ajh-6" id="fl_arrow_up_o" xmlns="http://www.w3.org/2000/svg"><path stroke-linecap="round" stroke-linejoin="round" d="M4.5 10.5 12 3m0 0 7.5 7.5M12 3v18"></path></symbol><symbol fill="none" viewBox="0 0 24 24" stroke-width="1.5" stroke="currentColor" class="asw-6 ash-6" id="fl_burger" xmlns="http://www.w3.org/2000/svg"><path stroke-linecap="round" stroke-linejoin="round" d="M3.75 6.75h16.5M3.75 12h16.5m-16.5 5.25h16.5"></path></symbol><symbol fill="none" viewBox="0 0 24 24" stroke-width="1.5" stroke="currentColor" class="akw-6 akh-6" id="fl_calculator_o" xmlns="http://www.w3.org/2000/svg"><path stroke-linecap="round" stroke-linejoin="round" d="M15.75 15.75V18m-7.5-6.75h.008v.008H8.25v-.008zm0 2.25h.008v.008H8.25V13.5zm0 2.25h.008v.008H8.25v-.008zm0 2.25h.008v.008H8.25V18zm2.498-6.75h.007v.008h-.007v-.008zm0 2.25h.007v.008h-.007V13.5zm0 2.25h.007v.008h-.007v-.008zm0 2.25h.007v.008h-.007V18zm2.504-6.75h.008v.008h-.008v-.008zm0 2.25h.008v.008h-.008V13.5zm0 2.25h.008v.008h-.008v-.008zm0 2.25h.008v.008h-.008V18zm2.498-6.75h.008v.008h-.008v-.008zm0 2.25h.008v.008h-.008V13.5zM8.25 6h7.5v2.25h-7.5V6zM12 2.25c-1.892 0-3.758.11-5.593.322C5.307 2.7 4.5 3.65 4.5 4.757V19.5a2.25 2.25 0 0 0 2.25 2.25h10.5a2.25 2.25 0 0 0 2.25-2.25V4.757c0-1.108-.806-2.057-1.907-2.185A48.507 48.507 0 0 0 12 2.25z"></path></symbol><symbol fill="none" viewBox="0 0 24 24" stroke-width="1.5" stroke="currentColor" class="bpw-6 bph-6" id="fl_camera_o" xmlns="http://www.w3.org/2000/svg"><path stroke-linecap="round" stroke-linejoin="round" d="M6.827 6.175A2.31 2.31 0 0 1 5.186 7.23c-.38.054-.757.112-1.134.175C2.999 7.58 2.25 8.507 2.25 9.574V18a2.25 2.25 0 0 0 2.25 2.25h15A2.25 2.25 0 0 0 21.75 18V9.574c0-1.067-.75-1.994-1.802-2.169a47.865 47.865 0 0 0-1.134-.175 2.31 2.31 0 0 1-1.64-1.055l-.822-1.316a2.192 2.192 0 0 0-1.736-1.039 48.774 48.774 0 0 0-5.232 0 2.192 2.192 0 0 0-1.736 1.039l-.821 1.316z"></path><path stroke-linecap="round" stroke-linejoin="round" d="M16.5 12.75a4.5 4.5 0 1 1-9 0 4.5 4.5 0 0 1 9 0zm2.25-2.25h.008v.008h-.008V10.5z"></path></symbol><symbol fill="none" viewBox="0 0 24 24" stroke-width="1.5" stroke="currentColor" class="adw-6 adh-6" id="fl_cart_o" xmlns="http://www.w3.org/2000/svg"><path stroke-linecap="round" stroke-linejoin="round" d="M2.25 3h1.386c.51 0 .955.343 1.087.835l.383 1.437M7.5 14.25a3 3 0 0 0-3 3h15.75m-12.75-3h11.218c1.121-2.3 2.1-4.684 2.924-7.138a60.114 60.114 0 0 0-16.536-1.84M7.5 14.25 5.106 5.272M6 20.25a.75.75 0 1 1-1.5 0 .75.75 0 0 1 1.5 0zm12.75 0a.75.75 0 1 1-1.5 0 .75.75 0 0 1 1.5 0z"></path></symbol><symbol fill="none" viewBox="0 0 24 24" stroke-width="1.5" stroke="currentColor" class="acw-6 ach-6" id="fl_catalog_o" xmlns="http://www.w3.org/2000/svg"><path stroke-linecap="round" stroke-linejoin="round" d="M3.75 6A2.25 2.25 0 0 1 6 3.75h2.25A2.25 2.25 0 0 1 10.5 6v2.25a2.25 2.25 0 0 1-2.25 2.25H6a2.25 2.25 0 0 1-2.25-2.25V6zm0 9.75A2.25 2.25 0 0 1 6 13.5h2.25a2.25 2.25 0 0 1 2.25 2.25V18a2.25 2.25 0 0 1-2.25 2.25H6A2.25 2.25 0 0 1 3.75 18v-2.25zM13.5 6a2.25 2.25 0 0 1 2.25-2.25H18A2.25 2.25 0 0 1 20.25 6v2.25A2.25 2.25 0 0 1 18 10.5h-2.25a2.25 2.25 0 0 1-2.25-2.25V6zm0 9.75a2.25 2.25 0 0 1 2.25-2.25H18a2.25 2.25 0 0 1 2.25 2.25V18A2.25 2.25 0 0 1 18 20.25h-2.25A2.25 2.25 0 0 1 13.5 18v-2.25z"></path></symbol><symbol fill="none" viewBox="0 0 24 24" stroke-width="1.5" stroke="currentColor" class="bvw-6 bvh-6" id="fl_checkmark_o" xmlns="http://www.w3.org/2000/svg"><path stroke-linecap="round" stroke-linejoin="round" d="m4.5 12.75 6 6 9-13.5"></path></symbol><symbol fill="none" viewBox="0 0 24 24" stroke-width="1.5" stroke="currentColor" class="atw-6 ath-6" id="fl_close" xmlns="http://www.w3.org/2000/svg"><path stroke-linecap="round" stroke-linejoin="round" d="M6 18 18 6M6 6l12 12"></path></symbol><symbol fill="none" viewBox="0 0 32 32" id="fl_compare_o" xmlns="http://www.w3.org/2000/svg"><path d="M24 6H8a2 2 0 0 0-2 2v16a2 2 0 0 0 2 2h16a2 2 0 0 0 2-2V8a2 2 0 0 0-2-2Zm0 18H8V8h16v16Zm6-17v18a1 1 0 0 1-2 0V7a1 1 0 0 1 2 0ZM4 7v18a1 1 0 1 1-2 0V7a1 1 0 0 1 2 0Z" fill="currentColor"></path></symbol><symbol fill="none" viewBox="0 0 20 20" id="fl_condense" xmlns="http://www.w3.org/2000/svg"><path d="M7.5 7.5V3.75m0 3.75H3.75m3.75 0L3.125 3.125M7.5 12.5v3.75m0-3.75H3.75m3.75 0-4.375 4.375M12.5 7.5h3.75m-3.75 0V3.75m0 3.75 4.375-4.375M12.5 12.5h3.75m-3.75 0v3.75m0-3.75 4.375 4.375" stroke="currentColor" stroke-width="1.5" stroke-linecap="round" stroke-linejoin="round"></path></symbol><symbol fill="none" viewBox="0 0 24 24" stroke-width="1.5" stroke="currentColor" id="fl_devtools_o" xmlns="http://www.w3.org/2000/svg"><path stroke-linecap="round" stroke-linejoin="round" d="M11.42 15.17 17.25 21A2.652 2.652 0 0 0 21 17.25l-5.877-5.877M11.42 15.17l2.496-3.03c.317-.384.74-.626 1.208-.766M11.42 15.17l-4.655 5.653a2.548 2.548 0 1 1-3.586-3.586l6.837-5.63m5.108-.233c.55-.164 1.163-.188 1.743-.14a4.5 4.5 0 0 0 4.486-6.336l-3.276 3.277a3.004 3.004 0 0 1-2.25-2.25l3.276-3.276a4.5 4.5 0 0 0-6.336 4.486c.091 1.076-.071 2.264-.904 2.95l-.102.085m-1.745 1.437L5.909 7.5H4.5L2.25 3.75l1.5-1.5L7.5 4.5v1.409l4.26 4.26m-1.745 1.437 1.745-1.437m6.615 8.206L15.75 15.75M4.867 19.125h.008v.008h-.008v-.008Z"></path></symbol><symbol fill="none" viewBox="0 0 24 24" stroke-width="1.5" stroke="currentColor" class="avw-6 avh-6" id="fl_expand" xmlns="http://www.w3.org/2000/svg"><path stroke-linecap="round" stroke-linejoin="round" d="M3.75 3.75v4.5m0-4.5h4.5m-4.5 0L9 9M3.75 20.25v-4.5m0 4.5h4.5m-4.5 0L9 15M20.25 3.75h-4.5m4.5 0v4.5m0-4.5L15 9m5.25 11.25h-4.5m4.5 0v-4.5m0 4.5L15 15"></path></symbol><symbol fill="none" viewBox="0 0 19 21" id="fl_hand_point_o" xmlns="http://www.w3.org/2000/svg"><path d="M15.626 6.75c-.437 0-.867.109-1.251.318a2.623 2.623 0 0 0-3.624-1.565V2.625a2.625 2.625 0 1 0-5.25 0v7.5l-.358-.575a2.626 2.626 0 1 0-4.542 2.637l.438.772C4.265 18.646 5.599 21 10 21a8.26 8.26 0 0 0 8.25-8.25V9.375a2.625 2.625 0 0 0-2.625-2.625Zm1.125 6a6.757 6.757 0 0 1-6.75 6.75c-3.527 0-4.485-1.688-7.657-7.283l-.44-.775v-.005a1.125 1.125 0 1 1 1.962-1.102l1.75 2.813A.75.75 0 0 0 7 12.75V2.625a1.125 1.125 0 0 1 2.25 0V9a.75.75 0 0 0 1.5 0V7.875a1.125 1.125 0 0 1 2.25 0V9.75a.75.75 0 0 0 1.5 0v-.375a1.125 1.125 0 0 1 2.25 0v3.375Z" fill="currentColor"></path></symbol><symbol fill="inherit" viewBox="0 0 24 24" stroke-width="1.5" stroke="currentColor" class="aow-6 aoh-6" id="fl_heart_o" xmlns="http://www.w3.org/2000/svg"><path stroke-linecap="round" stroke-linejoin="round" d="M21 8.25c0-2.485-2.099-4.5-4.688-4.5-1.935 0-3.597 1.126-4.312 2.733-.715-1.607-2.377-2.733-4.313-2.733C5.1 3.75 3 5.765 3 8.25c0 7.22 9 12 9 12s9-4.78 9-12z"></path></symbol><symbol fill="none" viewBox="0 0 24 24" stroke-width="1.5" stroke="currentColor" class="biw-6 bih-6" id="fl_home_o" xmlns="http://www.w3.org/2000/svg"><path stroke-linecap="round" stroke-linejoin="round" d="m2.25 12 8.954-8.955a1.126 1.126 0 0 1 1.591 0L21.75 12M4.5 9.75v10.125c0 .621.504 1.125 1.125 1.125H9.75v-4.875c0-.621.504-1.125 1.125-1.125h2.25c.621 0 1.125.504 1.125 1.125V21h4.125c.621 0 1.125-.504 1.125-1.125V9.75M8.25 21h8.25"></path></symbol><symbol fill="currentColor" viewBox="0 0 21 21" class="aew-6 aeh-6" id="fl_hotpoint_o" xmlns="http://www.w3.org/2000/svg"><defs><radialGradient href="#aea" id="aeb" cx="2.646" cy="2.646" fx="2.646" fy="2.646" r="2.646" gradientUnits="userSpaceOnUse" gradientTransform="scale(3.77953)"></radialGradient><linearGradient id="aea"><stop style="stop-color:#000;stop-opacity:.6" offset="0"></stop><stop style="stop-color:#000;stop-opacity:0" offset="1"></stop></linearGradient></defs><path d="M20.5 10.5a10 10 0 0 1-9.999 10A10 10 0 0 1 .5 10.502 10 10 0 0 1 10.497.5 10 10 0 0 1 20.5 10.496Z"></path><path d="M20 10a10 10 0 0 1-9.999 10A10 10 0 0 1 0 10.002 10 10 0 0 1 9.997 0 10 10 0 0 1 20 9.996Z" fill="url(#aeb)" transform="translate(.5 .5)"></path><path d="M14.5 10.5a4 4 0 0 1-4 4 4 4 0 0 1-4-4 4 4 0 0 1 3.999-4 4 4 0 0 1 4.001 3.998Z" fill="#fff"></path></symbol><symbol fill="currentColor" viewBox="0 0 18 18" id="fl_info_o" xmlns="http://www.w3.org/2000/svg"><path d="M9 15.938A6.946 6.946 0 0 0 15.938 9 6.938 6.938 0 1 0 9 15.938ZM8.437 9v-.063h-.062a.562.562 0 1 1 0-1.124A1.187 1.187 0 0 1 9.563 9v3.188h.062a.563.563 0 0 1 0 1.124 1.187 1.187 0 0 1-1.188-1.187V9ZM4.521 2.296A8.062 8.062 0 0 1 9 .938 8.071 8.071 0 0 1 17.063 9 8.063 8.063 0 1 1 4.52 2.296Zm3.292 3.267a.875.875 0 1 1 1.75 0 .875.875 0 0 1-1.75 0Z"></path></symbol><symbol fill="none" viewBox="0 0 24 24" stroke-width="1.5" stroke="currentColor" class="auw-6 auh-6" id="fl_leave" xmlns="http://www.w3.org/2000/svg"><path stroke-linecap="round" stroke-linejoin="round" d="M15.75 9V5.25A2.25 2.25 0 0 0 13.5 3h-6a2.25 2.25 0 0 0-2.25 2.25v13.5A2.25 2.25 0 0 0 7.5 21h6a2.25 2.25 0 0 0 2.25-2.25V15M12 9l-3 3m0 0 3 3m-3-3h12.75"></path></symbol><symbol fill="none" viewBox="0 0 24 24" stroke-width="1.5" stroke="currentColor" class="baw-6 bah-6" id="fl_list_o" xmlns="http://www.w3.org/2000/svg"><path stroke-linecap="round" stroke-linejoin="round" d="M8.25 6.75h12M8.25 12h12m-12 5.25h12M3.75 6.75h.007v.008H3.75V6.75zm.375 0a.375.375 0 1 1-.75 0 .375.375 0 0 1 .75 0zM3.75 12h.007v.008H3.75V12zm.375 0a.375.375 0 1 1-.75 0 .375.375 0 0 1 .75 0zm-.375 5.25h.007v.008H3.75v-.008zm.375 0a.375.375 0 1 1-.75 0 .375.375 0 0 1 .75 0z"></path></symbol><symbol fill="none" viewBox="0 0 20 20" id="fl_medal_o" xmlns="http://www.w3.org/2000/svg"><path d="M16.875 7.5a6.875 6.875 0 1 0-11.25 5.3v5.95a.625.625 0 0 0 .905.56L10 17.577l3.471 1.735a.629.629 0 0 0 .279.062.625.625 0 0 0 .625-.625V12.8a6.863 6.863 0 0 0 2.5-5.3Zm-12.5 0A5.625 5.625 0 1 1 10 13.125 5.631 5.631 0 0 1 4.375 7.5Zm8.75 10.239-2.846-1.423a.626.626 0 0 0-.56 0L6.876 17.74v-4.116a6.866 6.866 0 0 0 6.25 0v4.116ZM10 11.875a4.375 4.375 0 1 0 0-8.75 4.375 4.375 0 0 0 0 8.75Zm0-7.5a3.125 3.125 0 1 1 0 6.25 3.125 3.125 0 0 1 0-6.25Z" fill="currentColor"></path></symbol><symbol fill="none" viewBox="0 0 32 32" id="fl_palette_o" xmlns="http://www.w3.org/2000/svg"><path d="M25.096 6.736A12.909 12.909 0 0 0 16 3h-.134A13 13 0 0 0 3 16c0 5.375 3.322 9.883 8.67 11.771A4.001 4.001 0 0 0 17 24a2 2 0 0 1 2-2h5.776a3.976 3.976 0 0 0 3.9-3.11c.224-.984.332-1.99.324-3a12.91 12.91 0 0 0-3.904-9.154Zm1.625 11.714A1.987 1.987 0 0 1 24.776 20H19a4 4 0 0 0-4 4 2 2 0 0 1-2.664 1.884C7.811 24.288 5 20.5 5 16A11 11 0 0 1 15.886 5H16a11.044 11.044 0 0 1 11 10.906c.007.856-.084 1.71-.273 2.544h-.005ZM17.5 9.5a1.5 1.5 0 1 1-3 0 1.5 1.5 0 0 1 3 0Zm-5.5 3a1.5 1.5 0 1 1-3 0 1.5 1.5 0 0 1 3 0Zm0 7a1.5 1.5 0 1 1-3 0 1.5 1.5 0 0 1 3 0Zm11-7a1.5 1.5 0 1 1-3 0 1.5 1.5 0 0 1 3 0Z" fill="currentColor"></path></symbol><symbol fill="none" viewBox="0 0 18 18" id="fl_pattern_o" xmlns="http://www.w3.org/2000/svg"><path fill-rule="evenodd" clip-rule="evenodd" d="M.668 2.334c0-.92.746-1.667 1.667-1.667h13.333c.92 0 1.667.746 1.667 1.667v13.333c0 .92-.747 1.667-1.667 1.667H2.335c-.92 0-1.667-.747-1.667-1.667V2.334Zm11.458-.417h3.542c.23 0 .417.187.417.417v6.041h-3.959V1.917Zm-1.25 0h-3.75v2.292h3.75V1.917Zm-5 0H2.335a.417.417 0 0 0-.417.417v6.041h3.958V1.917ZM1.918 9.625v6.042c0 .23.187.417.417.417h3.541V9.625H1.918Zm5.208 6.459h3.75v-2.292h-3.75v2.292Zm5 0h3.542c.23 0 .417-.187.417-.417V9.625h-3.959v6.459Zm-1.25-3.542h-3.75V5.459h3.75v7.083Z" fill="currentColor"></path><rect x="16.584" y="1.417" width="15.167" height="15.167" rx="1.25" transform="rotate(90 16.584 1.417)" stroke="currentColor" stroke-width="1.5"></rect></symbol><symbol fill="none" viewBox="0 0 24 24" stroke-width="1.5" stroke="currentColor" class="bhw-6 bhh-6" id="fl_phone_o" xmlns="http://www.w3.org/2000/svg"><path stroke-linecap="round" stroke-linejoin="round" d="M2.25 6.75c0 8.284 6.716 15 15 15h2.25a2.25 2.25 0 0 0 2.25-2.25v-1.372c0-.516-.351-.966-.852-1.091l-4.423-1.106c-.44-.11-.902.055-1.173.417l-.97 1.293c-.282.376-.769.542-1.21.38a12.035 12.035 0 0 1-7.143-7.143c-.162-.441.004-.928.38-1.21l1.293-.97c.363-.271.527-.734.417-1.173L6.963 3.102a1.125 1.125 0 0 0-1.091-.852H4.5A2.25 2.25 0 0 0 2.25 4.5v2.25z"></path></symbol><symbol fill="none" viewBox="0 0 24 24" stroke-width="1.5" stroke="currentColor" class="bqw-6 bqh-6" id="fl_photo_o" xmlns="http://www.w3.org/2000/svg"><path stroke-linecap="round" stroke-linejoin="round" d="m2.25 15.75 5.159-5.159a2.25 2.25 0 0 1 3.182 0l5.159 5.159m-1.5-1.5 1.409-1.409a2.25 2.25 0 0 1 3.182 0l2.909 2.909m-18 3.75h16.5a1.5 1.5 0 0 0 1.5-1.5V6a1.5 1.5 0 0 0-1.5-1.5H3.75A1.5 1.5 0 0 0 2.25 6v12a1.5 1.5 0 0 0 1.5 1.5zm10.5-11.25h.008v.008h-.008V8.25zm.375 0a.375.375 0 1 1-.75 0 .375.375 0 0 1 .75 0z"></path></symbol><symbol fill="currentColor" viewBox="0 0 32 32" id="fl_pricetag" xmlns="http://www.w3.org/2000/svg"><path d="M30.414 17 18 4.586A1.982 1.982 0 0 0 16.586 4H5a1 1 0 0 0-1 1v11.586A1.983 1.983 0 0 0 4.586 18L17 30.414a1.998 1.998 0 0 0 2.829 0l10.585-10.585a2 2 0 0 0 0-2.829Zm-12 12L6 16.586V6h10.586L29 18.414 18.414 29ZM12 10.5a1.5 1.5 0 1 1-3 0 1.5 1.5 0 0 1 3 0Z"></path></symbol><symbol fill="none" viewBox="0 0 24 24" stroke-width="1.5" stroke="currentColor" class="amw-6 amh-6" id="fl_question_mark_circle_o" xmlns="http://www.w3.org/2000/svg"><path stroke-linecap="round" stroke-linejoin="round" d="M9.879 7.519c1.171-1.025 3.071-1.025 4.242 0 1.172 1.025 1.172 2.687 0 3.712-.203.179-.43.326-.67.442-.745.361-1.45.999-1.45 1.827v.75M21 12a9 9 0 1 1-18 0 9 9 0 0 1 18 0zm-9 5.25h.008v.008H12v-.008z"></path></symbol><symbol fill="none" viewBox="0 0 24 24" stroke-width="1.5" stroke="currentColor" class="abw-6 abh-6" id="fl_quote_o" xmlns="http://www.w3.org/2000/svg"><path stroke-linecap="round" stroke-linejoin="round" d="M2.25 18.75a60.07 60.07 0 0 1 15.797 2.101c.727.198 1.453-.342 1.453-1.096V18.75M3.75 4.5v.75A.75.75 0 0 1 3 6h-.75m0 0v-.375c0-.621.504-1.125 1.125-1.125H20.25M2.25 6v9m18-10.5v.75c0 .414.336.75.75.75h.75m-1.5-1.5h.375c.621 0 1.125.504 1.125 1.125v9.75c0 .621-.504 1.125-1.125 1.125h-.375m1.5-1.5H21a.75.75 0 0 0-.75.75v.75m0 0H3.75m0 0h-.375a1.125 1.125 0 0 1-1.125-1.125V15m1.5 1.5v-.75A.75.75 0 0 0 3 15h-.75M15 10.5a3 3 0 1 1-6 0 3 3 0 0 1 6 0zm3 0h.008v.008H18V10.5zm-12 0h.008v.008H6V10.5z"></path></symbol><symbol fill="none" viewBox="0 0 24 24" stroke-width="1.5" stroke="currentColor" class="btw-6 bth-6" id="fl_refresh_o" xmlns="http://www.w3.org/2000/svg"><path stroke-linecap="round" stroke-linejoin="round" d="M16.023 9.348h4.992v-.001M2.985 19.644v-4.992m0 0h4.992m-4.993 0 3.181 3.183a8.25 8.25 0 0 0 13.803-3.7M4.031 9.865a8.25 8.25 0 0 1 13.803-3.7l3.181 3.182m0-4.991v4.99"></path></symbol><symbol fill="none" viewBox="0 0 24 24" id="fl_ruler_o" xmlns="http://www.w3.org/2000/svg"><path stroke="currentColor" stroke-width="1.5" stroke-linejoin="round" d="M22.5 7.766 17.184 2.45 2.5 17.133l5.316 5.316z"></path><path d="m14.083 9.294-1.571-1.571M16.558 6.82l-1.572-1.572M9.132 14.245 7.56 12.674M10.036 10.198l2.357 2.357M5.086 15.149l2.357 2.357" stroke="currentColor" stroke-width="1.5" stroke-linecap="round" stroke-linejoin="round"></path></symbol><symbol fill="none" viewBox="0 0 24 24" stroke-width="1.5" stroke="currentColor" class="bdw-6 bdh-6" id="fl_search_o" xmlns="http://www.w3.org/2000/svg"><path stroke-linecap="round" stroke-linejoin="round" d="m21 21-5.197-5.197m0 0A7.5 7.5 0 1 0 5.196 5.196a7.5 7.5 0 0 0 10.607 10.607z"></path></symbol><symbol fill="none" viewBox="0 0 24 24" stroke-width="1.5" stroke="currentColor" class="alw-6 alh-6" id="fl_share_o" xmlns="http://www.w3.org/2000/svg"><path stroke-linecap="round" stroke-linejoin="round" d="M7.217 10.907a2.25 2.25 0 1 0 0 2.186m0-2.186c.18.324.283.696.283 1.093s-.103.77-.283 1.093m0-2.186 9.566-5.314m-9.566 7.5 9.566 5.314m0 0a2.25 2.25 0 1 0 3.935 2.186 2.25 2.25 0 0 0-3.935-2.186zm0-12.814a2.25 2.25 0 1 0 3.933-2.185 2.25 2.25 0 0 0-3.933 2.185z"></path></symbol><symbol fill="none" viewBox="0 0 24 24" id="fl_shuffle_o" xmlns="http://www.w3.org/2000/svg"><path d="m17.809 5.842 2.17 2.17-2.17 2.17M17.83 13.82 20 15.99l-2.17 2.17" stroke="currentColor" stroke-width="2" stroke-linecap="round" stroke-linejoin="round"></path><path d="M11.71 12.325a4.24 4.24 0 0 0-4.241-4.241" stroke="currentColor" stroke-width="2" stroke-linecap="round"></path><path d="M11.71 11.939a4.24 4.24 0 0 0 4.241 4.24M15.952 16.18h3.084M7.47 8.084H4" stroke="currentColor" stroke-width="2" stroke-linecap="round"></path><path d="M11.71 11.939a4.24 4.24 0 0 1-4.241 4.24" stroke="currentColor" stroke-width="2" stroke-linecap="round"></path><path d="M11.71 12.325a4.24 4.24 0 0 1 4.241-4.241M15.952 8.083h3.084M7.47 16.18H4" stroke="currentColor" stroke-width="2" stroke-linecap="round"></path></symbol><symbol fill="none" viewBox="0 0 24 24" stroke-width="1.5" stroke="currentColor" class="bgw-6 bgh-6" id="fl_support_o" xmlns="http://www.w3.org/2000/svg"><path stroke-linecap="round" stroke-linejoin="round" d="M16.712 4.33a9.027 9.027 0 0 1 1.652 1.306c.51.51.944 1.064 1.306 1.652M16.712 4.33l-3.448 4.138m3.448-4.138a9.014 9.014 0 0 0-9.424 0M19.67 7.288l-4.138 3.448m4.138-3.448a9.014 9.014 0 0 1 0 9.424m-4.138-5.976a3.736 3.736 0 0 0-.88-1.388 3.737 3.737 0 0 0-1.388-.88m2.268 2.268a3.765 3.765 0 0 1 0 2.528m-2.268-4.796a3.765 3.765 0 0 0-2.528 0m4.796 4.796a3.754 3.754 0 0 1-.88 1.388 3.736 3.736 0 0 1-1.388.88m2.268-2.268 4.138 3.448m0 0a9.027 9.027 0 0 1-1.306 1.652c-.51.51-1.064.944-1.652 1.306m0 0-3.448-4.138m3.448 4.138a9.014 9.014 0 0 1-9.424 0m5.976-4.138a3.765 3.765 0 0 1-2.528 0m0 0a3.736 3.736 0 0 1-1.388-.88 3.737 3.737 0 0 1-.88-1.388m2.268 2.268L7.288 19.67m0 0a9.024 9.024 0 0 1-1.652-1.306 9.027 9.027 0 0 1-1.306-1.652m0 0 4.138-3.448M4.33 16.712a9.014 9.014 0 0 1 0-9.424m4.138 5.976a3.765 3.765 0 0 1 0-2.528m0 0c.181-.506.475-.982.88-1.388a3.736 3.736 0 0 1 1.388-.88m-2.268 2.268L4.33 7.288m6.406 1.18L7.288 4.33m0 0a9.024 9.024 0 0 0-1.652 1.306A9.025 9.025 0 0 0 4.33 7.288"></path></symbol><symbol fill="none" viewBox="0 0 24 24" stroke-width="1.5" stroke="currentColor" class="buw-6 buh-6" id="fl_trash_o" xmlns="http://www.w3.org/2000/svg"><path stroke-linecap="round" stroke-linejoin="round" d="m14.74 9-.346 9m-4.788 0L9.26 9m9.968-3.21c.342.052.682.107 1.022.166m-1.022-.165L18.16 19.673a2.25 2.25 0 0 1-2.244 2.077H8.084a2.25 2.25 0 0 1-2.244-2.077L4.772 5.79m14.456 0a48.108 48.108 0 0 0-3.478-.397m-12 .562c.34-.059.68-.114 1.022-.165m0 0a48.11 48.11 0 0 1 3.478-.397m7.5 0v-.916c0-1.18-.91-2.164-2.09-2.201a51.964 51.964 0 0 0-3.32 0c-1.18.037-2.09 1.022-2.09 2.201v.916m7.5 0a48.667 48.667 0 0 0-7.5 0"></path></symbol><symbol fill="none" viewBox="0 0 24 24" stroke-width="1.5" stroke="currentColor" class="bww-6 bwh-6" id="fl_zoom_in_o" xmlns="http://www.w3.org/2000/svg"><path stroke-linecap="round" stroke-linejoin="round" d="m21 21-5.197-5.197m0 0A7.5 7.5 0 1 0 5.196 5.196a7.5 7.5 0 0 0 10.607 10.607zM10.5 7.5v6m3-3h-6"></path></symbol><symbol fill="none" viewBox="0 0 24 24" stroke-width="1.5" stroke="currentColor" class="bxw-6 bxh-6" id="fl_zoom_out_o" xmlns="http://www.w3.org/2000/svg"><path stroke-linecap="round" stroke-linejoin="round" d="m21 21-5.197-5.197m0 0A7.5 7.5 0 1 0 5.196 5.196a7.5 7.5 0 0 0 10.607 10.607zM13.5 10.5h-6"></path></symbol><symbol fill="none" viewBox="0 0 24 24" stroke-width="1.5" stroke="currentColor" class="aew-6 aeh-6" id="fl_chevron_left_s" xmlns="http://www.w3.org/2000/svg"><path stroke-linecap="round" stroke-linejoin="round" d="M15.75 19.5 8.25 12l7.5-7.5"></path></symbol><symbol fill="none" viewBox="0 0 24 24" stroke-width="1.5" stroke="currentColor" class="afw-6 afh-6" id="fl_chevron_right_s" xmlns="http://www.w3.org/2000/svg"><path stroke-linecap="round" stroke-linejoin="round" d="m8.25 4.5 7.5 7.5-7.5 7.5"></path></symbol><symbol fill="none" viewBox="0 0 24 24" id="fl_compare_s" xmlns="http://www.w3.org/2000/svg"><path d="M0 0h24v24H0z"></path><path d="M12 4.21v15.578m3.99-14.536h4.069c.968 0 1.752.784 1.752 1.752v9.93c0 .968-.784 1.753-1.752 1.753H15.99m.683-4.622L18.738 12l-2.065-2.065M8 18.687H3.94s0 0 0 0a1.752 1.752 0 0 1-1.752-1.752v-9.93c0-.969.784-1.753 1.752-1.753H8m-.674 4.682-2.065 2.065 2.065 2.066" stroke="currentColor" stroke-width="1.5" stroke-linecap="round" stroke-linejoin="round"></path></symbol><symbol viewBox="0 0 24 24" fill="currentColor" class="acw-6 ach-6" id="fl_info_s" xmlns="http://www.w3.org/2000/svg"><path fill-rule="evenodd" d="M2.25 12c0-5.385 4.365-9.75 9.75-9.75s9.75 4.365 9.75 9.75-4.365 9.75-9.75 9.75S2.25 17.385 2.25 12zm8.706-1.442c1.146-.573 2.437.463 2.126 1.706l-.709 2.836.042-.02a.75.75 0 0 1 .67 1.34l-.04.022c-1.147.573-2.438-.463-2.127-1.706l.71-2.836-.042.02a.75.75 0 1 1-.671-1.34l.041-.022zM12 9a.75.75 0 1 0 0-1.5.75.75 0 0 0 0 1.5z" clip-rule="evenodd"></path></symbol><symbol viewBox="0 0 24 24" fill="currentColor" class="aaw-6 aah-6" id="fl_photo_s" xmlns="http://www.w3.org/2000/svg"><path fill-rule="evenodd" d="M1.5 6a2.25 2.25 0 0 1 2.25-2.25h16.5A2.25 2.25 0 0 1 22.5 6v12a2.25 2.25 0 0 1-2.25 2.25H3.75A2.25 2.25 0 0 1 1.5 18V6zM3 16.06V18c0 .414.336.75.75.75h16.5A.75.75 0 0 0 21 18v-1.94l-2.69-2.689a1.5 1.5 0 0 0-2.12 0l-.88.879.97.97a.75.75 0 1 1-1.06 1.06l-5.16-5.159a1.5 1.5 0 0 0-2.12 0L3 16.061zm10.125-7.81a1.125 1.125 0 1 1 2.25 0 1.125 1.125 0 0 1-2.25 0z" clip-rule="evenodd"></path></symbol><symbol fill="none" viewBox="0 0 46 45" id="fl_star_s" xmlns="http://www.w3.org/2000/svg"><path d="m24.375 36.809-1.381 5.522-1.38-5.522A18 18 0 0 0 8.515 23.712l-5.522-1.38 5.522-1.381A18 18 0 0 0 21.613 7.854l1.38-5.523 1.382 5.523A18 18 0 0 0 37.47 20.95l5.523 1.38-5.523 1.38A18 18 0 0 0 24.375 36.81Z" stroke="currentColor" stroke-width="4.372" stroke-linecap="round" stroke-linejoin="round"></path></symbol></svg>