<svg width="200" height="200" viewBox="0 0 200 200" fill="none" xmlns="http://www.w3.org/2000/svg">
    <rect width="200" height="200" fill="#FAFAFA" />
    <path
        d="M110 88H90C89.4696 88 88.9609 88.2107 88.5858 88.5858C88.2107 88.9609 88 89.4696 88 90V110C88 110.53 88.2107 111.039 88.5858 111.414C88.9609 111.789 89.4696 112 90 112H110C110.53 112 111.039 111.789 111.414 111.414C111.789 111.039 112 110.53 112 110V90C112 89.4696 111.789 88.9609 111.414 88.5858C111.039 88.2107 110.53 88 110 88ZM90 90H110V99.6725L106.914 96.585C106.539 96.2102 106.03 95.9997 105.5 95.9997C104.97 95.9997 104.461 96.2102 104.086 96.585L90.6712 110H90V90ZM110 110H93.5L105.5 98L110 102.5V110ZM96 99C96.5933 99 97.1734 98.8241 97.6667 98.4944C98.1601 98.1648 98.5446 97.6962 98.7716 97.1481C98.9987 96.5999 99.0581 95.9967 98.9424 95.4147C98.8266 94.8328 98.5409 94.2982 98.1213 93.8787C97.7018 93.4591 97.1672 93.1734 96.5853 93.0576C96.0033 92.9419 95.4001 93.0013 94.8519 93.2284C94.3038 93.4554 93.8352 93.8399 93.5056 94.3333C93.1759 94.8266 93 95.4067 93 96C93 96.7956 93.3161 97.5587 93.8787 98.1213C94.4413 98.6839 95.2044 99 96 99ZM96 95C96.1978 95 96.3911 95.0586 96.5556 95.1685C96.72 95.2784 96.8482 95.4346 96.9239 95.6173C96.9996 95.8 97.0194 96.0011 96.9808 96.1951C96.9422 96.3891 96.847 96.5673 96.7071 96.7071C96.5673 96.847 96.3891 96.9422 96.1951 96.9808C96.0011 97.0194 95.8 96.9996 95.6173 96.9239C95.4346 96.8482 95.2784 96.72 95.1685 96.5556C95.0586 96.3911 95 96.1978 95 96C95 95.7348 95.1054 95.4804 95.2929 95.2929C95.4804 95.1054 95.7348 95 96 95Z"
        fill="#787674" />
</svg>
